# xmcd
#
# Track frame offsets: 
#        150
#        19055
#        35107
#        49895
#        67153
#        87695
#        104534
#        120445
#        141429
#        163563
#        177119
#        197593
#        229357
#        257519
#        273858
#        289840
#        311266
#
# Disc length: 4377 seconds
#
# Revision: 0
# Processed by: cddbd v1.4PL0 Copyright (c) Steve Scherf et al.
# Submitted via: ExactAudioCopy v0.90b4
#
DISCID=fa111711
DTITLE=Чиж and Co - Легенды Русского Рока
DYEAR=1998
DGENRE=Blues
TTITLE0=Фантом
TTITLE1=Машинист
TTITLE2=Тучи Над Городом Встали
TTITLE3=На Поле Танки Грохотали
TTITLE4=Эрогенная Зона
TTITLE5=В Старинном Городе О.
TTITLE6=Солдат На Привале
TTITLE7=О Любви
TTITLE8=О.К.
TTITLE9=Вечная Молодость
TTITLE10=Вот Пуля Просвистела
TTITLE11=Перекресток
TTITLE12=Полонез
TTITLE13=Прекрасное Воскресение
TTITLE14=Поход
TTITLE15=Бомбардировщики
TTITLE16=Под Звездами Балканскими
EXTD=
EXTT0=
EXTT1=
EXTT2=
EXTT3=
EXTT4=
EXTT5=
EXTT6=
EXTT7=
EXTT8=
EXTT9=
EXTT10=
EXTT11=
EXTT12=
EXTT13=
EXTT14=
EXTT15=
EXTT16=
PLAYORDER=
